# xmcd
#
# Track frame offsets:
#	150
#	13977
#	27085
#	39622
#	48910
#	62352
#	76302
#	87190
#	97405
#	109800
#	123050
#	134070
#	146880
#	159182
#	171400
#	184687
#	197217
#	211535
#	224597
#	235537
#	247745
#	263722
#
# Disc length: 3652
#
# Revision: 2
# Processed by: cddbd v1.5.1PL0 Copyright (c) Steve Scherf et al.
# Submitted via: NotifyCDPlayer(CDDB) 1.51.3
# Normalized: r1:DSETVAR1,TDELIM( - )
#
DISCID=300e4216
DTITLE=Various Artist - The Fifties:  Juke Joint Blues
DYEAR=1900
DGENRE=
TTITLE0=Three O'Clock Blues - B.B. King
TTITLE1=Long Tall Woman - Elmore James
TTITLE2=Ramblin' On My Mind - Boyd Gilmore
TTITLE3=Gonna Let Your Go - Baby Face Turner
TTITLE4=Love My Baby - Bobby Bland and Junior Parker
TTITLE5=Riding In The Moonlight - Howlin' Wolf
TTITLE6=44 Blues - Dudlow and Peck Curtis
TTITLE7=Step Back Baby - Sunny Blair
TTITLE8=This Is The End - James Reed
TTITLE9=Jake Head Boogie - Lightnin' Hopkins
TTITLE10=Down In New Orleans (aka Hey Mr. Porter) - Little George Smith
TTITLE11=Monte Carlo - Dixie Blues Boys
TTITLE12=Doin' The Town - Floyd Dixon
TTITLE13=Just In From Texas - Roscoe Gordon
TTITLE14=Big Mouth - Jimmy Nelson
TTITLE15=Have You Ever - Mercy Dee
TTITLE16=Sputterin' Blues - Walter Robertson
TTITLE17=Prowling Blues - Johnny Fuller
TTITLE18=Going To New Orleans - Kid Tanner
TTITLE19=Good Morning Little Angel - Joe Hill Louis
TTITLE20=The Panic's On - Jimmy McCracklin
TTITLE21=What's The Matter (With You) - Walter Horton
EXTD=(c) 1987 Ace Records\n
EXTT0=
EXTT1=
EXTT2=
EXTT3=
EXTT4=
EXTT5=
EXTT6=
EXTT7=
EXTT8=
EXTT9=
EXTT10=
EXTT11=
EXTT12=
EXTT13=
EXTT14=
EXTT15=
EXTT16=
EXTT17=
EXTT18=
EXTT19=
EXTT20=
EXTT21=
PLAYORDER=
